<?xml version="1.0" encoding="UTF-8" standalone="no"?>
<svg
   xmlns:dc="http://purl.org/dc/elements/1.1/"
   xmlns:cc="http://creativecommons.org/ns#"
   xmlns:rdf="http://www.w3.org/1999/02/22-rdf-syntax-ns#"
   xmlns:svg="http://www.w3.org/2000/svg"
   xmlns="http://www.w3.org/2000/svg"
   xmlns:sodipodi="http://sodipodi.sourceforge.net/DTD/sodipodi-0.dtd"
   xmlns:inkscape="http://www.inkscape.org/namespaces/inkscape"
   viewBox="0 0 841.9 595.3"
   version="1.1"
   id="svg10"
   sodipodi:docname="logo.svg"
   inkscape:version="1.0.2 (e86c870879, 2021-01-15, custom)">
  <metadata
     id="metadata16">
    <rdf:RDF>
      <cc:Work
         rdf:about="">
        <dc:format>image/svg+xml</dc:format>
        <dc:type
           rdf:resource="http://purl.org/dc/dcmitype/StillImage" />
      </cc:Work>
    </rdf:RDF>
  </metadata>
  <defs
     id="defs14" />
  <sodipodi:namedview
     pagecolor="#ffffff"
     bordercolor="#666666"
     borderopacity="1"
     objecttolerance="10"
     gridtolerance="10"
     guidetolerance="10"
     inkscape:pageopacity="0"
     inkscape:pageshadow="2"
     inkscape:window-width="809"
     inkscape:window-height="1311"
     id="namedview12"
     showgrid="false"
     inkscape:zoom="0.15013439"
     inkscape:cx="-43.024133"
     inkscape:cy="900.18988"
     inkscape:window-x="0"
     inkscape:window-y="0"
     inkscape:window-maximized="1"
     inkscape:current-layer="svg10" />
  <g
     fill="none"
     stroke="#000000"
     stroke-width="1"
     fill-rule="evenodd"
     stroke-linecap="square"
     stroke-linejoin="bevel"
     id="g246"
     transform="translate(160.1897,42.443814)">
    <g
       fill="#000000"
       fill-opacity="1"
       stroke="#000000"
       stroke-opacity="1"
       stroke-width="1"
       stroke-linecap="square"
       stroke-linejoin="miter"
       stroke-miterlimit="2"
       id="g6" />
    <g
       fill="#000000"
       fill-opacity="1"
       stroke="#000000"
       stroke-opacity="1"
       stroke-width="1"
       stroke-linecap="square"
       stroke-linejoin="miter"
       stroke-miterlimit="2"
       id="g8" />
    <g
       fill="#000000"
       fill-opacity="1"
       stroke="#000000"
       stroke-opacity="1"
       stroke-width="1"
       stroke-linecap="square"
       stroke-linejoin="miter"
       stroke-miterlimit="2"
       id="g10" />
    <g
       fill="#000000"
       fill-opacity="1"
       stroke="#000000"
       stroke-opacity="1"
       stroke-width="1"
       stroke-linecap="square"
       stroke-linejoin="miter"
       stroke-miterlimit="2"
       id="g12" />
    <g
       fill="#000000"
       fill-opacity="1"
       stroke="#000000"
       stroke-opacity="1"
       stroke-width="1"
       stroke-linecap="square"
       stroke-linejoin="miter"
       stroke-miterlimit="2"
       transform="translate(8,8)"
       id="g14" />
    <g
       fill="#7dccab"
       fill-opacity="1"
       stroke="none"
       transform="matrix(2.78523,0,0,2.78523,128.474,74.466)"
       id="g18">
      <path
         vector-effect="none"
         fill-rule="nonzero"
         d="M 100,50 C 100,77.6142 77.6142,100 50,100 22.3858,100 0,77.6142 0,50 0,22.3858 22.3858,0 50,0 c 27.6142,0 50,22.3858 50,50"
         id="path16" />
    </g>
    <g
       fill="#000000"
       fill-opacity="1"
       stroke="#000000"
       stroke-opacity="1"
       stroke-width="1"
       stroke-linecap="square"
       stroke-linejoin="miter"
       stroke-miterlimit="2"
       transform="translate(8,8)"
       id="g20" />
    <g
       fill="#d8c39b"
       fill-opacity="1"
       stroke="none"
       transform="matrix(5.3961,0,0,5.3961,110.211,56)"
       id="g24">
      <path
         vector-effect="none"
         fill-rule="nonzero"
         d="M 8,4 C 5.789,4 4,2.211 4,0 4,2.211 2.211,4 0,4 2.211,4 4,5.789 4,8 4,5.789 5.789,4 8,4"
         id="path22" />
    </g>
    <g
       fill="none"
       stroke="#1e252a"
       stroke-opacity="1"
       stroke-width="2"
       stroke-linecap="round"
       stroke-linejoin="round"
       transform="matrix(5.3961,0,0,5.3961,110.211,56)"
       id="g28">
      <path
         vector-effect="none"
         fill-rule="nonzero"
         d="M 8,4 C 5.789,4 4,2.211 4,0 4,2.211 2.211,4 0,4 2.211,4 4,5.789 4,8 4,5.789 5.789,4 8,4"
         id="path26" />
    </g>
    <g
       fill="#000000"
       fill-opacity="1"
       stroke="#000000"
       stroke-opacity="1"
       stroke-width="1"
       stroke-linecap="square"
       stroke-linejoin="miter"
       stroke-miterlimit="2"
       transform="translate(8,8)"
       id="g30" />
    <g
       fill="#1e252a"
       fill-opacity="1"
       stroke="none"
       transform="matrix(5.3961,0,0,5.3961,110.211,56)"
       id="g34">
      <path
         vector-effect="none"
         fill-rule="nonzero"
         d="m 28.1744,44 h 21.826"
         id="path32" />
    </g>
    <g
       fill="none"
       stroke="#1e252a"
       stroke-opacity="1"
       stroke-width="2"
       stroke-linecap="round"
       stroke-linejoin="miter"
       stroke-miterlimit="4"
       transform="matrix(5.3961,0,0,5.3961,110.211,56)"
       id="g38">
      <path
         vector-effect="none"
         fill-rule="nonzero"
         d="m 28.1744,44 h 21.826"
         id="path36" />
    </g>
    <g
       fill="#000000"
       fill-opacity="1"
       stroke="#000000"
       stroke-opacity="1"
       stroke-width="1"
       stroke-linecap="square"
       stroke-linejoin="miter"
       stroke-miterlimit="2"
       transform="translate(8,8)"
       id="g40" />
    <g
       fill="#1e252a"
       fill-opacity="1"
       stroke="none"
       transform="matrix(5.3961,0,0,5.3961,110.211,56)"
       id="g44">
      <path
         vector-effect="none"
         fill-rule="nonzero"
         d="M 8,44 H 21.943"
         id="path42" />
    </g>
    <g
       fill="none"
       stroke="#1e252a"
       stroke-opacity="1"
       stroke-width="2"
       stroke-linecap="round"
       stroke-linejoin="miter"
       stroke-miterlimit="4"
       transform="matrix(5.3961,0,0,5.3961,110.211,56)"
       id="g48">
      <path
         vector-effect="none"
         fill-rule="nonzero"
         d="M 8,44 H 21.943"
         id="path46" />
    </g>
    <g
       fill="#000000"
       fill-opacity="1"
       stroke="#000000"
       stroke-opacity="1"
       stroke-width="1"
       stroke-linecap="square"
       stroke-linejoin="miter"
       stroke-miterlimit="2"
       transform="translate(8,8)"
       id="g50" />
    <g
       fill="#1e252a"
       fill-opacity="1"
       stroke="none"
       transform="matrix(5.3961,0,0,5.3961,110.211,56)"
       id="g54">
      <path
         vector-effect="none"
         fill-rule="nonzero"
         d="M 7.7371,32 H 4.0001"
         id="path52" />
    </g>
    <g
       fill="none"
       stroke="#1e252a"
       stroke-opacity="1"
       stroke-width="2"
       stroke-linecap="round"
       stroke-linejoin="miter"
       stroke-miterlimit="4"
       transform="matrix(5.3961,0,0,5.3961,110.211,56)"
       id="g58">
      <path
         vector-effect="none"
         fill-rule="nonzero"
         d="M 7.7371,32 H 4.0001"
         id="path56" />
    </g>
    <g
       fill="#000000"
       fill-opacity="1"
       stroke="#000000"
       stroke-opacity="1"
       stroke-width="1"
       stroke-linecap="square"
       stroke-linejoin="miter"
       stroke-miterlimit="2"
       transform="translate(8,8)"
       id="g60" />
    <g
       fill="#1e252a"
       fill-opacity="1"
       stroke="none"
       transform="matrix(5.3961,0,0,5.3961,110.211,56)"
       id="g64">
      <path
         vector-effect="none"
         fill-rule="nonzero"
         d="M 34,32 H 15"
         id="path62" />
    </g>
    <g
       fill="none"
       stroke="#1e252a"
       stroke-opacity="1"
       stroke-width="2"
       stroke-linecap="round"
       stroke-linejoin="miter"
       stroke-miterlimit="4"
       transform="matrix(5.3961,0,0,5.3961,110.211,56)"
       id="g68">
      <path
         vector-effect="none"
         fill-rule="nonzero"
         d="M 34,32 H 15"
         id="path66" />
    </g>
    <g
       fill="#000000"
       fill-opacity="1"
       stroke="#000000"
       stroke-opacity="1"
       stroke-width="1"
       stroke-linecap="square"
       stroke-linejoin="miter"
       stroke-miterlimit="2"
       transform="translate(8,8)"
       id="g70" />
    <g
       fill="#1e252a"
       fill-opacity="1"
       stroke="none"
       transform="matrix(5.3961,0,0,5.3961,110.211,56)"
       id="g74">
      <path
         vector-effect="none"
         fill-rule="nonzero"
         d="M 42,38 H 21"
         id="path72" />
    </g>
    <g
       fill="none"
       stroke="#1e252a"
       stroke-opacity="1"
       stroke-width="2"
       stroke-linecap="round"
       stroke-linejoin="miter"
       stroke-miterlimit="4"
       transform="matrix(5.3961,0,0,5.3961,110.211,56)"
       id="g78">
      <path
         vector-effect="none"
         fill-rule="nonzero"
         d="M 42,38 H 21"
         id="path76" />
    </g>
    <g
       fill="#000000"
       fill-opacity="1"
       stroke="#000000"
       stroke-opacity="1"
       stroke-width="1"
       stroke-linecap="square"
       stroke-linejoin="miter"
       stroke-miterlimit="2"
       transform="translate(8,8)"
       id="g80" />
    <g
       fill="#1e252a"
       fill-opacity="1"
       stroke="none"
       transform="matrix(5.3961,0,0,5.3961,110.211,56)"
       id="g84">
      <path
         vector-effect="none"
         fill-rule="nonzero"
         d="M 30,49 H 13"
         id="path82" />
    </g>
    <g
       fill="none"
       stroke="#1e252a"
       stroke-opacity="1"
       stroke-width="2"
       stroke-linecap="round"
       stroke-linejoin="miter"
       stroke-miterlimit="4"
       transform="matrix(5.3961,0,0,5.3961,110.211,56)"
       id="g88">
      <path
         vector-effect="none"
         fill-rule="nonzero"
         d="M 30,49 H 13"
         id="path86" />
    </g>
    <g
       fill="#000000"
       fill-opacity="1"
       stroke="#000000"
       stroke-opacity="1"
       stroke-width="1"
       stroke-linecap="square"
       stroke-linejoin="miter"
       stroke-miterlimit="2"
       transform="translate(8,8)"
       id="g90" />
    <g
       fill="#1e252a"
       fill-opacity="1"
       stroke="none"
       transform="matrix(5.3961,0,0,5.3961,110.211,56)"
       id="g94">
      <path
         vector-effect="none"
         fill-rule="nonzero"
         d="M 33,26 H 23"
         id="path92" />
    </g>
    <g
       fill="none"
       stroke="#1e252a"
       stroke-opacity="1"
       stroke-width="2"
       stroke-linecap="round"
       stroke-linejoin="miter"
       stroke-miterlimit="4"
       transform="matrix(5.3961,0,0,5.3961,110.211,56)"
       id="g98">
      <path
         vector-effect="none"
         fill-rule="nonzero"
         d="M 33,26 H 23"
         id="path96" />
    </g>
    <g
       fill="#000000"
       fill-opacity="1"
       stroke="#000000"
       stroke-opacity="1"
       stroke-width="1"
       stroke-linecap="square"
       stroke-linejoin="miter"
       stroke-miterlimit="2"
       transform="translate(8,8)"
       id="g100" />
    <g
       fill="#1e252a"
       fill-opacity="1"
       stroke="none"
       transform="matrix(5.3961,0,0,5.3961,110.211,56)"
       id="g104">
      <path
         vector-effect="none"
         fill-rule="nonzero"
         d="M 14,26 H 4"
         id="path102" />
    </g>
    <g
       fill="none"
       stroke="#1e252a"
       stroke-opacity="1"
       stroke-width="2"
       stroke-linecap="round"
       stroke-linejoin="miter"
       stroke-miterlimit="4"
       transform="matrix(5.3961,0,0,5.3961,110.211,56)"
       id="g108">
      <path
         vector-effect="none"
         fill-rule="nonzero"
         d="M 14,26 H 4"
         id="path106" />
    </g>
    <g
       fill="#000000"
       fill-opacity="1"
       stroke="#000000"
       stroke-opacity="1"
       stroke-width="1"
       stroke-linecap="square"
       stroke-linejoin="miter"
       stroke-miterlimit="2"
       transform="translate(8,8)"
       id="g110" />
    <g
       fill="#1e252a"
       fill-opacity="1"
       stroke="none"
       transform="matrix(5.3961,0,0,5.3961,110.211,56)"
       id="g114">
      <path
         vector-effect="none"
         fill-rule="nonzero"
         d="M 32,15 H 22"
         id="path112" />
    </g>
    <g
       fill="none"
       stroke="#1e252a"
       stroke-opacity="1"
       stroke-width="2"
       stroke-linecap="round"
       stroke-linejoin="miter"
       stroke-miterlimit="4"
       transform="matrix(5.3961,0,0,5.3961,110.211,56)"
       id="g118">
      <path
         vector-effect="none"
         fill-rule="nonzero"
         d="M 32,15 H 22"
         id="path116" />
    </g>
    <g
       fill="#000000"
       fill-opacity="1"
       stroke="#000000"
       stroke-opacity="1"
       stroke-width="1"
       stroke-linecap="square"
       stroke-linejoin="miter"
       stroke-miterlimit="2"
       transform="translate(8,8)"
       id="g120" />
    <g
       fill="#1e252a"
       fill-opacity="1"
       stroke="none"
       transform="matrix(5.3961,0,0,5.3961,110.211,56)"
       id="g124">
      <path
         vector-effect="none"
         fill-rule="nonzero"
         d="M 54,32 H 42"
         id="path122" />
    </g>
    <g
       fill="none"
       stroke="#1e252a"
       stroke-opacity="1"
       stroke-width="2"
       stroke-linecap="round"
       stroke-linejoin="miter"
       stroke-miterlimit="4"
       transform="matrix(5.3961,0,0,5.3961,110.211,56)"
       id="g128">
      <path
         vector-effect="none"
         fill-rule="nonzero"
         d="M 54,32 H 42"
         id="path126" />
    </g>
    <g
       fill="#000000"
       fill-opacity="1"
       stroke="#000000"
       stroke-opacity="1"
       stroke-width="1"
       stroke-linecap="square"
       stroke-linejoin="miter"
       stroke-miterlimit="2"
       transform="translate(8,8)"
       id="g130" />
    <g
       fill="#1e252a"
       fill-opacity="1"
       stroke="none"
       transform="matrix(5.3961,0,0,5.3961,110.211,56)"
       id="g134">
      <path
         vector-effect="none"
         fill-rule="nonzero"
         d="M 25.6229,9 H 12.9999"
         id="path132" />
    </g>
    <g
       fill="none"
       stroke="#1e252a"
       stroke-opacity="1"
       stroke-width="2"
       stroke-linecap="round"
       stroke-linejoin="miter"
       stroke-miterlimit="4"
       transform="matrix(5.3961,0,0,5.3961,110.211,56)"
       id="g138">
      <path
         vector-effect="none"
         fill-rule="nonzero"
         d="M 25.6229,9 H 12.9999"
         id="path136" />
    </g>
    <g
       fill="#000000"
       fill-opacity="1"
       stroke="#000000"
       stroke-opacity="1"
       stroke-width="1"
       stroke-linecap="square"
       stroke-linejoin="miter"
       stroke-miterlimit="2"
       transform="translate(8,8)"
       id="g140" />
    <g
       fill="#1e252a"
       fill-opacity="1"
       stroke="none"
       transform="matrix(5.3961,0,0,5.3961,110.211,56)"
       id="g144">
      <path
         vector-effect="none"
         fill-rule="nonzero"
         d="M 38,9 H 32"
         id="path142" />
    </g>
    <g
       fill="none"
       stroke="#1e252a"
       stroke-opacity="1"
       stroke-width="2"
       stroke-linecap="round"
       stroke-linejoin="miter"
       stroke-miterlimit="4"
       transform="matrix(5.3961,0,0,5.3961,110.211,56)"
       id="g148">
      <path
         vector-effect="none"
         fill-rule="nonzero"
         d="M 38,9 H 32"
         id="path146" />
    </g>
    <g
       fill="#000000"
       fill-opacity="1"
       stroke="#000000"
       stroke-opacity="1"
       stroke-width="1"
       stroke-linecap="square"
       stroke-linejoin="miter"
       stroke-miterlimit="2"
       transform="translate(8,8)"
       id="g150" />
    <g
       fill="#1e252a"
       fill-opacity="1"
       stroke="none"
       transform="matrix(5.3961,0,0,5.3961,110.211,56)"
       id="g154">
      <path
         vector-effect="none"
         fill-rule="nonzero"
         d="m 30.2629,21 h 22.737"
         id="path152" />
    </g>
    <g
       fill="none"
       stroke="#1e252a"
       stroke-opacity="1"
       stroke-width="2"
       stroke-linecap="round"
       stroke-linejoin="miter"
       stroke-miterlimit="4"
       transform="matrix(5.3961,0,0,5.3961,110.211,56)"
       id="g158">
      <path
         vector-effect="none"
         fill-rule="nonzero"
         d="m 30.2629,21 h 22.737"
         id="path156" />
    </g>
    <g
       fill="#000000"
       fill-opacity="1"
       stroke="#000000"
       stroke-opacity="1"
       stroke-width="1"
       stroke-linecap="square"
       stroke-linejoin="miter"
       stroke-miterlimit="2"
       transform="translate(8,8)"
       id="g160" />
    <g
       fill="#1e252a"
       fill-opacity="1"
       stroke="none"
       transform="matrix(5.3961,0,0,5.3961,110.211,56)"
       id="g164">
      <path
         vector-effect="none"
         fill-rule="nonzero"
         d="M 5,21 H 23.661"
         id="path162" />
    </g>
    <g
       fill="none"
       stroke="#1e252a"
       stroke-opacity="1"
       stroke-width="2"
       stroke-linecap="round"
       stroke-linejoin="miter"
       stroke-miterlimit="4"
       transform="matrix(5.3961,0,0,5.3961,110.211,56)"
       id="g168">
      <path
         vector-effect="none"
         fill-rule="nonzero"
         d="M 5,21 H 23.661"
         id="path166" />
    </g>
    <g
       fill="#000000"
       fill-opacity="1"
       stroke="#000000"
       stroke-opacity="1"
       stroke-width="1"
       stroke-linecap="square"
       stroke-linejoin="miter"
       stroke-miterlimit="2"
       transform="translate(8,8)"
       id="g170" />
    <g
       fill="#1e252a"
       fill-opacity="1"
       stroke="none"
       transform="matrix(5.07518,0,0,5.07518,62.7222,10.7198)"
       id="g174">
      <path
         vector-effect="none"
         fill-rule="nonzero"
         d="M 40,68.5 C 24.3,68.5 11.5,55.7 11.5,40 11.5,24.3 24.3,11.5 40,11.5 55.7,11.5 68.5,24.3 68.5,40 68.5,55.7 55.7,68.5 40,68.5 m 0,-55 C 25.4,13.5 13.5,25.4 13.5,40 13.5,54.6 25.4,66.5 40,66.5 54.6,66.5 66.5,54.6 66.5,40 66.5,25.4 54.6,13.5 40,13.5"
         id="path172" />
    </g>
    <g
       fill="#000000"
       fill-opacity="1"
       stroke="#000000"
       stroke-opacity="1"
       stroke-width="1"
       stroke-linecap="square"
       stroke-linejoin="miter"
       stroke-miterlimit="2"
       transform="translate(8,8)"
       id="g176" />
    <g
       fill="#1e252a"
       fill-opacity="1"
       stroke="none"
       transform="matrix(5.3961,0,0,5.3961,110.211,56)"
       id="g180">
      <path
         vector-effect="none"
         fill-rule="nonzero"
         d="m 53,52 c 0,0.552 -0.448,1 -1,1 -0.552,0 -1,-0.448 -1,-1 0,-0.552 0.448,-1 1,-1 0.552,0 1,0.448 1,1"
         id="path178" />
    </g>
    <g
       fill="#000000"
       fill-opacity="1"
       stroke="#000000"
       stroke-opacity="1"
       stroke-width="1"
       stroke-linecap="square"
       stroke-linejoin="miter"
       stroke-miterlimit="2"
       transform="translate(8,8)"
       id="g182" />
    <g
       fill="#1e252a"
       fill-opacity="1"
       stroke="none"
       transform="matrix(5.3961,0,0,5.3961,110.211,56)"
       id="g186">
      <path
         vector-effect="none"
         fill-rule="nonzero"
         d="m 57,9 c 0,0.552 -0.448,1 -1,1 -0.552,0 -1,-0.448 -1,-1 0,-0.552 0.448,-1 1,-1 0.552,0 1,0.448 1,1"
         id="path184" />
    </g>
    <g
       fill="#000000"
       fill-opacity="1"
       stroke="#000000"
       stroke-opacity="1"
       stroke-width="1"
       stroke-linecap="square"
       stroke-linejoin="miter"
       stroke-miterlimit="2"
       transform="translate(8,8)"
       id="g188" />
    <g
       fill="#1e252a"
       fill-opacity="1"
       stroke="none"
       transform="matrix(5.3961,0,0,5.3961,110.211,56)"
       id="g192">
      <path
         vector-effect="none"
         fill-rule="nonzero"
         d="m 7,56 c 0,0.552 -0.448,1 -1,1 -0.552,0 -1,-0.448 -1,-1 0,-0.552 0.448,-1 1,-1 0.552,0 1,0.448 1,1"
         id="path190" />
    </g>
    <g
       fill="#000000"
       fill-opacity="1"
       stroke="#000000"
       stroke-opacity="1"
       stroke-width="1"
       stroke-linecap="square"
       stroke-linejoin="miter"
       stroke-miterlimit="2"
       transform="translate(8,8)"
       id="g194" />
    <g
       fill="#d8c39b"
       fill-opacity="1"
       stroke="none"
       transform="matrix(5.3961,0,0,5.3961,110.211,56)"
       id="g198">
      <path
         vector-effect="none"
         fill-rule="nonzero"
         d="m 50,8 c 0,3.314 -2.686,6 -6,6 -3.314,0 -6,-2.686 -6,-6 0,-3.314 2.686,-6 6,-6 3.314,0 6,2.686 6,6"
         id="path196" />
    </g>
    <g
       fill="none"
       stroke="#1e252a"
       stroke-opacity="1"
       stroke-width="2"
       stroke-linecap="butt"
       stroke-linejoin="miter"
       stroke-miterlimit="4"
       transform="matrix(5.3961,0,0,5.3961,110.211,56)"
       id="g202">
      <path
         vector-effect="none"
         fill-rule="nonzero"
         d="m 50,8 c 0,3.314 -2.686,6 -6,6 -3.314,0 -6,-2.686 -6,-6 0,-3.314 2.686,-6 6,-6 3.314,0 6,2.686 6,6"
         id="path200" />
    </g>
    <g
       fill="#000000"
       fill-opacity="1"
       stroke="#000000"
       stroke-opacity="1"
       stroke-width="1"
       stroke-linecap="square"
       stroke-linejoin="miter"
       stroke-miterlimit="2"
       transform="translate(8,8)"
       id="g204" />
    <g
       fill="#d8c39b"
       fill-opacity="1"
       stroke="none"
       transform="matrix(5.3961,0,0,5.3961,110.211,56)"
       id="g208">
      <path
         vector-effect="none"
         fill-rule="nonzero"
         d="m 43,53 c 0,2.209 -1.791,4 -4,4 -2.209,0 -4,-1.791 -4,-4 0,-2.209 1.791,-4 4,-4 2.209,0 4,1.791 4,4"
         id="path206" />
    </g>
    <g
       fill="none"
       stroke="#1e252a"
       stroke-opacity="1"
       stroke-width="2"
       stroke-linecap="butt"
       stroke-linejoin="miter"
       stroke-miterlimit="4"
       transform="matrix(5.3961,0,0,5.3961,110.211,56)"
       id="g212">
      <path
         vector-effect="none"
         fill-rule="nonzero"
         d="m 43,53 c 0,2.209 -1.791,4 -4,4 -2.209,0 -4,-1.791 -4,-4 0,-2.209 1.791,-4 4,-4 2.209,0 4,1.791 4,4"
         id="path210" />
    </g>
    <g
       fill="#000000"
       fill-opacity="1"
       stroke="#000000"
       stroke-opacity="1"
       stroke-width="1"
       stroke-linecap="square"
       stroke-linejoin="miter"
       stroke-miterlimit="2"
       transform="translate(8,8)"
       id="g214" />
    <g
       fill="#1e252a"
       fill-opacity="1"
       stroke="none"
       transform="matrix(2.25031,0,0,2.25031,255.91,470.605)"
       id="g218">
      <path
         vector-effect="none"
         fill-rule="nonzero"
         d="M -50.444,-30.91 V -7.1 h 13.05 c 1.06,0 1.83,0.12 2.31,0.36 0.48,0.24 0.8,0.61333 0.96,1.12 0.16,0.51333 0.24,1.19333 0.24,2.04 0,0.85333 -0.08,1.53333 -0.24,2.04 -0.16,0.51333 -0.4333,0.866667 -0.82,1.06 -0.6067,0.32 -1.44,0.48 -2.5,0.48 h -17.28 c -2.24,0 -3.55,-0.606667 -3.93,-1.82 -0.1933,-0.51333 -0.29,-1.33 -0.29,-2.45 v -26.69 c 0,-0.7333 0.0233,-1.2867 0.07,-1.66 0.0467,-0.3667 0.2,-0.79 0.46,-1.27 0.4467,-0.86 1.6933,-1.29 3.74,-1.29 2.24,0 3.57,0.59 3.99,1.77 0.16,0.5467 0.24,1.38 0.24,2.5 m 42.136,15.24 c 0,1.9667 -0.48667,3.4233 -1.46,4.37 -0.9733,0.94 -2.0533,1.41 -3.24,1.41 h -11.38 c 0,0.9 0.53,1.65333 1.59,2.26 1.0533,0.60667 2.11,0.91 3.17,0.91 1.8533,0 3.3067,-0.19333 4.36,-0.58 l 0.53,-0.19 c 0.7667,-0.35333 1.4067,-0.53 1.92,-0.53 1.0267,0 1.9067,0.72 2.64,2.16 0.42,0.86667 0.63,1.60333 0.63,2.21 0,2.846667 -3.41,4.27 -10.23,4.27 -2.3667,0 -4.47,-0.406667 -6.31,-1.22 -1.84,-0.81333 -3.2733,-1.89333 -4.3,-3.24 -2.0133,-2.59333 -3.02,-5.49 -3.02,-8.69 0,-4.0333 1.3033,-7.2567 3.91,-9.67 2.6067,-2.4133 5.8633,-3.62 9.77,-3.62 4.4467,0 7.71,1.5667 9.79,4.7 1.08667,1.6667 1.63,3.4833 1.63,5.45 m -16.17,1.41 h 6.05 c 1.2133,0 1.82,-0.51 1.82,-1.53 0,-0.74 -0.28,-1.3333 -0.84,-1.78 -0.56,-0.4467 -1.36,-0.67 -2.4,-0.67 -1.04,0 -2.0733,0.4233 -3.1,1.27 -1.02,0.8467 -1.53,1.75 -1.53,2.71 m 19.294,10.04 v -16.85 c 0,-0.74 0.02333,-1.2933 0.07,-1.66 0.04667,-0.3667 0.18333,-0.79 0.41,-1.27 0.44667,-0.8333 1.69333,-1.25 3.74,-1.25 1.54,0 2.63,0.2733 3.27,0.82 0.54,0.4467 0.82667,1.1333 0.86,2.06 0.03333,0.32 0.05,0.7833 0.05,1.39 v 16.8 c 0,0.74 -0.02333,1.29333 -0.07,1.66 -0.04667,0.36667 -0.2,0.79 -0.46,1.27 C 2.27267,-0.416667 1.04267,0 -1.004,0 c -2.02,0 -3.25333,-0.433333 -3.7,-1.3 -0.22667,-0.48 -0.36333,-0.89333 -0.41,-1.24 -0.04667,-0.35333 -0.07,-0.91333 -0.07,-1.68 m 7.9,-25.76 c -0.24,0.4667 -0.66667,0.7967 -1.28,0.99 -0.606667,0.1933 -1.4133334,0.29 -2.42,0.29 -1.00667,0 -1.81333,-0.0967 -2.42,-0.29 -0.61333,-0.1933 -1.04,-0.53 -1.28,-1.01 -0.24,-0.48 -0.38333,-0.9033 -0.43,-1.27 -0.04667,-0.3667 -0.07,-0.92 -0.07,-1.66 0,-0.7333 0.02333,-1.2833 0.07,-1.65 0.04667,-0.3733 0.18333,-0.7833 0.41,-1.23 0.44667,-0.86 1.69333,-1.29 3.74,-1.29 2.02,0 3.23667,0.43 3.65,1.29 0.26,0.48 0.41333,0.9033 0.46,1.27 0.04667,0.3733 0.07,0.9267 0.07,1.66 0,0.7333 -0.02333,1.2867 -0.07,1.66 -0.04667,0.3667 -0.19,0.78 -0.43,1.24 m 19.03,13.18 -3.12,-0.19 v 6.62 c 0,0.86667 0.1367,1.49 0.41,1.87 0.2667,0.38667 0.7767,0.58 1.53,0.58 0.7533,0 1.33,0.02333 1.73,0.07 0.4,0.04667 0.8233,0.2 1.27,0.46 0.74,0.41333 1.11,1.48333 1.11,3.21 0,2.02 -0.45,3.253333 -1.35,3.7 -0.48,0.226667 -0.9033,0.363333 -1.27,0.41 -0.3667,0.0466667 -0.9033,0.07 -1.61,0.07 -3.3267,0 -5.8533,-0.753333 -7.58,-2.26 -1.7267,-1.5 -2.59,-4.04333 -2.59,-7.63 v -7.1 c -0.61333,0.0933 -1.27,0.14 -1.97,0.14 -0.70667,0 -1.29,-0.27 -1.75,-0.81 -0.46667,-0.5467 -0.7,-1.4767 -0.7,-2.79 0,-1.3133 0.08,-2.2633 0.24,-2.85 0.16,-0.5933 0.38333,-1.02 0.67,-1.28 0.51333,-0.4133 1.15333,-0.62 1.92,-0.62 l 1.59,0.19 v -4.94 c 0,-0.74 0.0233,-1.2833 0.07,-1.63 0.0467,-0.3533 0.1967,-0.74 0.45,-1.16 0.42,-0.8 1.6533,-1.2 3.7,-1.2 2.1733,0 3.47,0.5933 3.89,1.78 0.16,0.5133 0.24,1.33 0.24,2.45 v 4.7 c 1.4067,-0.1267 2.47,-0.19 3.19,-0.19 0.72,0 1.2633,0.0233 1.63,0.07 0.3667,0.0467 0.79,0.2 1.27,0.46 0.8333,0.4133 1.25,1.6433 1.25,3.69 0,2.02 -0.43,3.2533 -1.29,3.7 -0.48,0.2267 -0.9067,0.3633 -1.28,0.41 -0.3667,0.0467 -0.9167,0.07 -1.65,0.07 m 6.862,12.58 v -16.85 c 0,-0.74 0.0233,-1.2933 0.07,-1.66 0.0467,-0.3667 0.1833,-0.79 0.41,-1.27 0.4467,-0.8333 1.6933,-1.25 3.74,-1.25 1.54,0 2.63,0.2733 3.27,0.82 0.54,0.4467 0.8267,1.1333 0.86,2.06 0.0333,0.32 0.05,0.7833 0.05,1.39 v 16.8 c 0,0.74 -0.0233,1.29333 -0.07,1.66 -0.0467,0.36667 -0.2,0.79 -0.46,1.27 -0.4133,0.833333 -1.6433,1.25 -3.69,1.25 -2.02,0 -3.2533,-0.433333 -3.7,-1.3 -0.2267,-0.48 -0.3633,-0.89333 -0.41,-1.24 -0.0467,-0.35333 -0.07,-0.91333 -0.07,-1.68 m 7.9,-25.76 c -0.24,0.4667 -0.6667,0.7967 -1.28,0.99 -0.6067,0.1933 -1.4133,0.29 -2.42,0.29 -1.0067,0 -1.8133,-0.0967 -2.42,-0.29 -0.6133,-0.1933 -1.04,-0.53 -1.28,-1.01 -0.24,-0.48 -0.3833,-0.9033 -0.43,-1.27 -0.0467,-0.3667 -0.07,-0.92 -0.07,-1.66 0,-0.7333 0.0233,-1.2833 0.07,-1.65 0.0467,-0.3733 0.1833,-0.7833 0.41,-1.23 0.4467,-0.86 1.6933,-1.29 3.74,-1.29 2.02,0 3.2367,0.43 3.65,1.29 0.26,0.48 0.4133,0.9033 0.46,1.27 0.0467,0.3733 0.07,0.9267 0.07,1.66 0,0.7333 -0.0233,1.2867 -0.07,1.66 -0.0467,0.3667 -0.19,0.78 -0.43,1.24 m 21.52,4.97 c 0.6133,0.1933 1.12,0.5233 1.52,0.99 0.4,0.46 0.6,1.2033 0.6,2.23 0,1.02 -0.3067,2.14 -0.92,3.36 -0.6067,1.2133 -1.4867,1.82 -2.64,1.82 -0.5733,0 -1.1233,-0.1267 -1.65,-0.38 -0.5267,-0.26 -1.2233,-0.39 -2.09,-0.39 -0.8667,0 -1.6733,0.3067 -2.42,0.92 -0.7533,0.6067 -1.13,1.34 -1.13,2.2 v 10.08 c 0,0.74 -0.0233,1.29333 -0.07,1.66 -0.0533,0.36667 -0.2067,0.79 -0.46,1.27 -0.48,0.833333 -1.7267,1.25 -3.74,1.25 -1.54,0 -2.6467,-0.273333 -3.32,-0.82 -0.5067,-0.44667 -0.7933,-1.13333 -0.86,-2.06 0,-0.32 0,-0.78333 0,-1.39 v -16.85 c 0,-0.7333 0.0233,-1.2867 0.07,-1.66 0.0467,-0.3667 0.1833,-0.7733 0.41,-1.22 0.4467,-0.8667 1.6933,-1.3 3.74,-1.3 1.92,0 3.12,0.37 3.6,1.11 0.3533,0.5133 0.53,1.04 0.53,1.58 0.16,-0.22 0.3933,-0.49 0.7,-0.81 0.3,-0.32 0.9467,-0.7533 1.94,-1.3 0.9933,-0.5467 1.8667,-0.82 2.62,-0.82 0.7533,0 1.3833,0.04 1.89,0.12 0.5133,0.08 1.0733,0.2167 1.68,0.41"
         id="path216" />
    </g>
    <g
       fill="#000000"
       fill-opacity="1"
       stroke="#000000"
       stroke-opacity="1"
       stroke-width="1"
       stroke-linecap="square"
       stroke-linejoin="miter"
       stroke-miterlimit="2"
       transform="translate(8,8)"
       id="g220" />
    <g
       fill="#000000"
       fill-opacity="1"
       stroke="#000000"
       stroke-opacity="1"
       stroke-width="1"
       stroke-linecap="square"
       stroke-linejoin="miter"
       stroke-miterlimit="2"
       transform="translate(8,8)"
       id="g222" />
    <g
       fill="#000000"
       fill-opacity="1"
       stroke="#000000"
       stroke-opacity="1"
       stroke-width="1"
       stroke-linecap="square"
       stroke-linejoin="miter"
       stroke-miterlimit="2"
       id="g224" />
    <g
       fill="#000000"
       fill-opacity="1"
       stroke="#000000"
       stroke-opacity="1"
       stroke-width="1"
       stroke-linecap="square"
       stroke-linejoin="miter"
       stroke-miterlimit="2"
       id="g226" />
    <g
       fill="#000000"
       fill-opacity="1"
       stroke="#000000"
       stroke-opacity="1"
       stroke-width="1"
       stroke-linecap="square"
       stroke-linejoin="miter"
       stroke-miterlimit="2"
       id="g228" />
    <g
       fill="#000000"
       fill-opacity="1"
       stroke="#000000"
       stroke-opacity="1"
       stroke-width="1"
       stroke-linecap="square"
       stroke-linejoin="miter"
       stroke-miterlimit="2"
       id="g230" />
    <g
       fill="#000000"
       fill-opacity="1"
       stroke="#000000"
       stroke-opacity="1"
       stroke-width="1"
       stroke-linecap="square"
       stroke-linejoin="miter"
       stroke-miterlimit="2"
       transform="translate(8,8)"
       id="g232" />
    <g
       fill="#000000"
       fill-opacity="1"
       stroke="#000000"
       stroke-opacity="1"
       stroke-width="1"
       stroke-linecap="square"
       stroke-linejoin="miter"
       stroke-miterlimit="2"
       id="g234" />
    <g
       fill="#000000"
       fill-opacity="1"
       stroke="#000000"
       stroke-opacity="1"
       stroke-width="1"
       stroke-linecap="square"
       stroke-linejoin="miter"
       stroke-miterlimit="2"
       id="g236" />
    <g
       fill="#000000"
       fill-opacity="1"
       stroke="#000000"
       stroke-opacity="1"
       stroke-width="1"
       stroke-linecap="square"
       stroke-linejoin="miter"
       stroke-miterlimit="2"
       id="g238" />
    <g
       fill="#000000"
       fill-opacity="1"
       stroke="#000000"
       stroke-opacity="1"
       stroke-width="1"
       stroke-linecap="square"
       stroke-linejoin="miter"
       stroke-miterlimit="2"
       id="g240" />
    <g
       fill="#000000"
       fill-opacity="1"
       stroke="#000000"
       stroke-opacity="1"
       stroke-width="1"
       stroke-linecap="square"
       stroke-linejoin="miter"
       stroke-miterlimit="2"
       id="g242" />
    <g
       fill="#000000"
       fill-opacity="1"
       stroke="#000000"
       stroke-opacity="1"
       stroke-width="1"
       stroke-linecap="square"
       stroke-linejoin="miter"
       stroke-miterlimit="2"
       id="g244" />
  </g>
</svg>
