<?xml version="1.0" encoding="UTF-8" standalone="no"?>
<svg width="317.5mm" height="139.7mm"
 xmlns="http://www.w3.org/2000/svg" xmlns:xlink="http://www.w3.org/1999/xlink"  version="1.2" baseProfile="tiny">
<desc>Created by HiQPdf</desc>
<defs>
</defs>
<g fill="none" stroke="black" stroke-width="1" fill-rule="evenodd" stroke-linecap="square" stroke-linejoin="bevel" >

<g fill="#000000" fill-opacity="1" stroke="#000000" stroke-opacity="1" stroke-width="1" stroke-linecap="square" stroke-linejoin="miter" stroke-miterlimit="2" transform="matrix(1,0,0,1,0,0)"
>
</g>

<g fill="#000000" fill-opacity="1" stroke="#000000" stroke-opacity="1" stroke-width="1" stroke-linecap="square" stroke-linejoin="miter" stroke-miterlimit="2" transform="matrix(1,0,0,1,0,0)"
>
</g>

<g fill="#000000" fill-opacity="1" stroke="#000000" stroke-opacity="1" stroke-width="1" stroke-linecap="square" stroke-linejoin="miter" stroke-miterlimit="2" transform="matrix(1,0,0,1,0,0)"
>
</g>

<g fill="#000000" fill-opacity="1" stroke="#000000" stroke-opacity="1" stroke-width="1" stroke-linecap="square" stroke-linejoin="miter" stroke-miterlimit="2" transform="matrix(1,0,0,1,0,0)"
>
</g>

<g fill="#000000" fill-opacity="1" stroke="#000000" stroke-opacity="1" stroke-width="1" stroke-linecap="square" stroke-linejoin="miter" stroke-miterlimit="2" transform="matrix(1,0,0,1,8,8)"
>
</g>

<g fill="#7dccab" fill-opacity="1" stroke="none" transform="matrix(2.78523,0,0,2.78523,128.474,74.466)"
>
<path vector-effect="none" fill-rule="nonzero" d="M100,50 C100,77.6142 77.6142,100 50,100 C22.3858,100 0,77.6142 0,50 C0,22.3858 22.3858,0 50,0 C77.6142,0 100,22.3858 100,50 "/>
</g>

<g fill="#000000" fill-opacity="1" stroke="#000000" stroke-opacity="1" stroke-width="1" stroke-linecap="square" stroke-linejoin="miter" stroke-miterlimit="2" transform="matrix(1,0,0,1,8,8)"
>
</g>

<g fill="#d8c39b" fill-opacity="1" stroke="none" transform="matrix(5.3961,0,0,5.3961,110.211,56)"
>
<path vector-effect="none" fill-rule="nonzero" d="M8,4 C5.789,4 4,2.211 4,0 C4,2.211 2.211,4 0,4 C2.211,4 4,5.789 4,8 C4,5.789 5.789,4 8,4 "/>
</g>

<g fill="none" stroke="#1e252a" stroke-opacity="1" stroke-width="2" stroke-linecap="round" stroke-linejoin="round" transform="matrix(5.3961,0,0,5.3961,110.211,56)"
>
<path vector-effect="none" fill-rule="nonzero" d="M8,4 C5.789,4 4,2.211 4,0 C4,2.211 2.211,4 0,4 C2.211,4 4,5.789 4,8 C4,5.789 5.789,4 8,4 "/>
</g>

<g fill="#000000" fill-opacity="1" stroke="#000000" stroke-opacity="1" stroke-width="1" stroke-linecap="square" stroke-linejoin="miter" stroke-miterlimit="2" transform="matrix(1,0,0,1,8,8)"
>
</g>

<g fill="#1e252a" fill-opacity="1" stroke="none" transform="matrix(5.3961,0,0,5.3961,110.211,56)"
>
<path vector-effect="none" fill-rule="nonzero" d="M28.1744,44 L50.0004,44"/>
</g>

<g fill="none" stroke="#1e252a" stroke-opacity="1" stroke-width="2" stroke-linecap="round" stroke-linejoin="miter" stroke-miterlimit="4" transform="matrix(5.3961,0,0,5.3961,110.211,56)"
>
<path vector-effect="none" fill-rule="nonzero" d="M28.1744,44 L50.0004,44"/>
</g>

<g fill="#000000" fill-opacity="1" stroke="#000000" stroke-opacity="1" stroke-width="1" stroke-linecap="square" stroke-linejoin="miter" stroke-miterlimit="2" transform="matrix(1,0,0,1,8,8)"
>
</g>

<g fill="#1e252a" fill-opacity="1" stroke="none" transform="matrix(5.3961,0,0,5.3961,110.211,56)"
>
<path vector-effect="none" fill-rule="nonzero" d="M8,44 L21.943,44"/>
</g>

<g fill="none" stroke="#1e252a" stroke-opacity="1" stroke-width="2" stroke-linecap="round" stroke-linejoin="miter" stroke-miterlimit="4" transform="matrix(5.3961,0,0,5.3961,110.211,56)"
>
<path vector-effect="none" fill-rule="nonzero" d="M8,44 L21.943,44"/>
</g>

<g fill="#000000" fill-opacity="1" stroke="#000000" stroke-opacity="1" stroke-width="1" stroke-linecap="square" stroke-linejoin="miter" stroke-miterlimit="2" transform="matrix(1,0,0,1,8,8)"
>
</g>

<g fill="#1e252a" fill-opacity="1" stroke="none" transform="matrix(5.3961,0,0,5.3961,110.211,56)"
>
<path vector-effect="none" fill-rule="nonzero" d="M7.7371,32 L4.0001,32"/>
</g>

<g fill="none" stroke="#1e252a" stroke-opacity="1" stroke-width="2" stroke-linecap="round" stroke-linejoin="miter" stroke-miterlimit="4" transform="matrix(5.3961,0,0,5.3961,110.211,56)"
>
<path vector-effect="none" fill-rule="nonzero" d="M7.7371,32 L4.0001,32"/>
</g>

<g fill="#000000" fill-opacity="1" stroke="#000000" stroke-opacity="1" stroke-width="1" stroke-linecap="square" stroke-linejoin="miter" stroke-miterlimit="2" transform="matrix(1,0,0,1,8,8)"
>
</g>

<g fill="#1e252a" fill-opacity="1" stroke="none" transform="matrix(5.3961,0,0,5.3961,110.211,56)"
>
<path vector-effect="none" fill-rule="nonzero" d="M34,32 L15,32"/>
</g>

<g fill="none" stroke="#1e252a" stroke-opacity="1" stroke-width="2" stroke-linecap="round" stroke-linejoin="miter" stroke-miterlimit="4" transform="matrix(5.3961,0,0,5.3961,110.211,56)"
>
<path vector-effect="none" fill-rule="nonzero" d="M34,32 L15,32"/>
</g>

<g fill="#000000" fill-opacity="1" stroke="#000000" stroke-opacity="1" stroke-width="1" stroke-linecap="square" stroke-linejoin="miter" stroke-miterlimit="2" transform="matrix(1,0,0,1,8,8)"
>
</g>

<g fill="#1e252a" fill-opacity="1" stroke="none" transform="matrix(5.3961,0,0,5.3961,110.211,56)"
>
<path vector-effect="none" fill-rule="nonzero" d="M42,38 L21,38"/>
</g>

<g fill="none" stroke="#1e252a" stroke-opacity="1" stroke-width="2" stroke-linecap="round" stroke-linejoin="miter" stroke-miterlimit="4" transform="matrix(5.3961,0,0,5.3961,110.211,56)"
>
<path vector-effect="none" fill-rule="nonzero" d="M42,38 L21,38"/>
</g>

<g fill="#000000" fill-opacity="1" stroke="#000000" stroke-opacity="1" stroke-width="1" stroke-linecap="square" stroke-linejoin="miter" stroke-miterlimit="2" transform="matrix(1,0,0,1,8,8)"
>
</g>

<g fill="#1e252a" fill-opacity="1" stroke="none" transform="matrix(5.3961,0,0,5.3961,110.211,56)"
>
<path vector-effect="none" fill-rule="nonzero" d="M30,49 L13,49"/>
</g>

<g fill="none" stroke="#1e252a" stroke-opacity="1" stroke-width="2" stroke-linecap="round" stroke-linejoin="miter" stroke-miterlimit="4" transform="matrix(5.3961,0,0,5.3961,110.211,56)"
>
<path vector-effect="none" fill-rule="nonzero" d="M30,49 L13,49"/>
</g>

<g fill="#000000" fill-opacity="1" stroke="#000000" stroke-opacity="1" stroke-width="1" stroke-linecap="square" stroke-linejoin="miter" stroke-miterlimit="2" transform="matrix(1,0,0,1,8,8)"
>
</g>

<g fill="#1e252a" fill-opacity="1" stroke="none" transform="matrix(5.3961,0,0,5.3961,110.211,56)"
>
<path vector-effect="none" fill-rule="nonzero" d="M33,26 L23,26"/>
</g>

<g fill="none" stroke="#1e252a" stroke-opacity="1" stroke-width="2" stroke-linecap="round" stroke-linejoin="miter" stroke-miterlimit="4" transform="matrix(5.3961,0,0,5.3961,110.211,56)"
>
<path vector-effect="none" fill-rule="nonzero" d="M33,26 L23,26"/>
</g>

<g fill="#000000" fill-opacity="1" stroke="#000000" stroke-opacity="1" stroke-width="1" stroke-linecap="square" stroke-linejoin="miter" stroke-miterlimit="2" transform="matrix(1,0,0,1,8,8)"
>
</g>

<g fill="#1e252a" fill-opacity="1" stroke="none" transform="matrix(5.3961,0,0,5.3961,110.211,56)"
>
<path vector-effect="none" fill-rule="nonzero" d="M14,26 L4,26"/>
</g>

<g fill="none" stroke="#1e252a" stroke-opacity="1" stroke-width="2" stroke-linecap="round" stroke-linejoin="miter" stroke-miterlimit="4" transform="matrix(5.3961,0,0,5.3961,110.211,56)"
>
<path vector-effect="none" fill-rule="nonzero" d="M14,26 L4,26"/>
</g>

<g fill="#000000" fill-opacity="1" stroke="#000000" stroke-opacity="1" stroke-width="1" stroke-linecap="square" stroke-linejoin="miter" stroke-miterlimit="2" transform="matrix(1,0,0,1,8,8)"
>
</g>

<g fill="#1e252a" fill-opacity="1" stroke="none" transform="matrix(5.3961,0,0,5.3961,110.211,56)"
>
<path vector-effect="none" fill-rule="nonzero" d="M32,15 L22,15"/>
</g>

<g fill="none" stroke="#1e252a" stroke-opacity="1" stroke-width="2" stroke-linecap="round" stroke-linejoin="miter" stroke-miterlimit="4" transform="matrix(5.3961,0,0,5.3961,110.211,56)"
>
<path vector-effect="none" fill-rule="nonzero" d="M32,15 L22,15"/>
</g>

<g fill="#000000" fill-opacity="1" stroke="#000000" stroke-opacity="1" stroke-width="1" stroke-linecap="square" stroke-linejoin="miter" stroke-miterlimit="2" transform="matrix(1,0,0,1,8,8)"
>
</g>

<g fill="#1e252a" fill-opacity="1" stroke="none" transform="matrix(5.3961,0,0,5.3961,110.211,56)"
>
<path vector-effect="none" fill-rule="nonzero" d="M54,32 L42,32"/>
</g>

<g fill="none" stroke="#1e252a" stroke-opacity="1" stroke-width="2" stroke-linecap="round" stroke-linejoin="miter" stroke-miterlimit="4" transform="matrix(5.3961,0,0,5.3961,110.211,56)"
>
<path vector-effect="none" fill-rule="nonzero" d="M54,32 L42,32"/>
</g>

<g fill="#000000" fill-opacity="1" stroke="#000000" stroke-opacity="1" stroke-width="1" stroke-linecap="square" stroke-linejoin="miter" stroke-miterlimit="2" transform="matrix(1,0,0,1,8,8)"
>
</g>

<g fill="#1e252a" fill-opacity="1" stroke="none" transform="matrix(5.3961,0,0,5.3961,110.211,56)"
>
<path vector-effect="none" fill-rule="nonzero" d="M25.6229,9 L12.9999,9"/>
</g>

<g fill="none" stroke="#1e252a" stroke-opacity="1" stroke-width="2" stroke-linecap="round" stroke-linejoin="miter" stroke-miterlimit="4" transform="matrix(5.3961,0,0,5.3961,110.211,56)"
>
<path vector-effect="none" fill-rule="nonzero" d="M25.6229,9 L12.9999,9"/>
</g>

<g fill="#000000" fill-opacity="1" stroke="#000000" stroke-opacity="1" stroke-width="1" stroke-linecap="square" stroke-linejoin="miter" stroke-miterlimit="2" transform="matrix(1,0,0,1,8,8)"
>
</g>

<g fill="#1e252a" fill-opacity="1" stroke="none" transform="matrix(5.3961,0,0,5.3961,110.211,56)"
>
<path vector-effect="none" fill-rule="nonzero" d="M38,9 L32,9"/>
</g>

<g fill="none" stroke="#1e252a" stroke-opacity="1" stroke-width="2" stroke-linecap="round" stroke-linejoin="miter" stroke-miterlimit="4" transform="matrix(5.3961,0,0,5.3961,110.211,56)"
>
<path vector-effect="none" fill-rule="nonzero" d="M38,9 L32,9"/>
</g>

<g fill="#000000" fill-opacity="1" stroke="#000000" stroke-opacity="1" stroke-width="1" stroke-linecap="square" stroke-linejoin="miter" stroke-miterlimit="2" transform="matrix(1,0,0,1,8,8)"
>
</g>

<g fill="#1e252a" fill-opacity="1" stroke="none" transform="matrix(5.3961,0,0,5.3961,110.211,56)"
>
<path vector-effect="none" fill-rule="nonzero" d="M30.2629,21 L52.9999,21"/>
</g>

<g fill="none" stroke="#1e252a" stroke-opacity="1" stroke-width="2" stroke-linecap="round" stroke-linejoin="miter" stroke-miterlimit="4" transform="matrix(5.3961,0,0,5.3961,110.211,56)"
>
<path vector-effect="none" fill-rule="nonzero" d="M30.2629,21 L52.9999,21"/>
</g>

<g fill="#000000" fill-opacity="1" stroke="#000000" stroke-opacity="1" stroke-width="1" stroke-linecap="square" stroke-linejoin="miter" stroke-miterlimit="2" transform="matrix(1,0,0,1,8,8)"
>
</g>

<g fill="#1e252a" fill-opacity="1" stroke="none" transform="matrix(5.3961,0,0,5.3961,110.211,56)"
>
<path vector-effect="none" fill-rule="nonzero" d="M5,21 L23.661,21"/>
</g>

<g fill="none" stroke="#1e252a" stroke-opacity="1" stroke-width="2" stroke-linecap="round" stroke-linejoin="miter" stroke-miterlimit="4" transform="matrix(5.3961,0,0,5.3961,110.211,56)"
>
<path vector-effect="none" fill-rule="nonzero" d="M5,21 L23.661,21"/>
</g>

<g fill="#000000" fill-opacity="1" stroke="#000000" stroke-opacity="1" stroke-width="1" stroke-linecap="square" stroke-linejoin="miter" stroke-miterlimit="2" transform="matrix(1,0,0,1,8,8)"
>
</g>

<g fill="#1e252a" fill-opacity="1" stroke="none" transform="matrix(5.07518,0,0,5.07518,62.7222,10.7198)"
>
<path vector-effect="none" fill-rule="nonzero" d="M40,68.5 C24.3,68.5 11.5,55.7 11.5,40 C11.5,24.3 24.3,11.5 40,11.5 C55.7,11.5 68.5,24.3 68.5,40 C68.5,55.7 55.7,68.5 40,68.5 M40,13.5 C25.4,13.5 13.5,25.4 13.5,40 C13.5,54.6 25.4,66.5 40,66.5 C54.6,66.5 66.5,54.6 66.5,40 C66.5,25.4 54.6,13.5 40,13.5 "/>
</g>

<g fill="#000000" fill-opacity="1" stroke="#000000" stroke-opacity="1" stroke-width="1" stroke-linecap="square" stroke-linejoin="miter" stroke-miterlimit="2" transform="matrix(1,0,0,1,8,8)"
>
</g>

<g fill="#1e252a" fill-opacity="1" stroke="none" transform="matrix(5.3961,0,0,5.3961,110.211,56)"
>
<path vector-effect="none" fill-rule="nonzero" d="M53,52 C53,52.552 52.552,53 52,53 C51.448,53 51,52.552 51,52 C51,51.448 51.448,51 52,51 C52.552,51 53,51.448 53,52 "/>
</g>

<g fill="#000000" fill-opacity="1" stroke="#000000" stroke-opacity="1" stroke-width="1" stroke-linecap="square" stroke-linejoin="miter" stroke-miterlimit="2" transform="matrix(1,0,0,1,8,8)"
>
</g>

<g fill="#1e252a" fill-opacity="1" stroke="none" transform="matrix(5.3961,0,0,5.3961,110.211,56)"
>
<path vector-effect="none" fill-rule="nonzero" d="M57,9 C57,9.552 56.552,10 56,10 C55.448,10 55,9.552 55,9 C55,8.448 55.448,8 56,8 C56.552,8 57,8.448 57,9 "/>
</g>

<g fill="#000000" fill-opacity="1" stroke="#000000" stroke-opacity="1" stroke-width="1" stroke-linecap="square" stroke-linejoin="miter" stroke-miterlimit="2" transform="matrix(1,0,0,1,8,8)"
>
</g>

<g fill="#1e252a" fill-opacity="1" stroke="none" transform="matrix(5.3961,0,0,5.3961,110.211,56)"
>
<path vector-effect="none" fill-rule="nonzero" d="M7,56 C7,56.552 6.552,57 6,57 C5.448,57 5,56.552 5,56 C5,55.448 5.448,55 6,55 C6.552,55 7,55.448 7,56 "/>
</g>

<g fill="#000000" fill-opacity="1" stroke="#000000" stroke-opacity="1" stroke-width="1" stroke-linecap="square" stroke-linejoin="miter" stroke-miterlimit="2" transform="matrix(1,0,0,1,8,8)"
>
</g>

<g fill="#d8c39b" fill-opacity="1" stroke="none" transform="matrix(5.3961,0,0,5.3961,110.211,56)"
>
<path vector-effect="none" fill-rule="nonzero" d="M50,8 C50,11.314 47.314,14 44,14 C40.686,14 38,11.314 38,8 C38,4.686 40.686,2 44,2 C47.314,2 50,4.686 50,8 "/>
</g>

<g fill="none" stroke="#1e252a" stroke-opacity="1" stroke-width="2" stroke-linecap="butt" stroke-linejoin="miter" stroke-miterlimit="4" transform="matrix(5.3961,0,0,5.3961,110.211,56)"
>
<path vector-effect="none" fill-rule="nonzero" d="M50,8 C50,11.314 47.314,14 44,14 C40.686,14 38,11.314 38,8 C38,4.686 40.686,2 44,2 C47.314,2 50,4.686 50,8 "/>
</g>

<g fill="#000000" fill-opacity="1" stroke="#000000" stroke-opacity="1" stroke-width="1" stroke-linecap="square" stroke-linejoin="miter" stroke-miterlimit="2" transform="matrix(1,0,0,1,8,8)"
>
</g>

<g fill="#d8c39b" fill-opacity="1" stroke="none" transform="matrix(5.3961,0,0,5.3961,110.211,56)"
>
<path vector-effect="none" fill-rule="nonzero" d="M43,53 C43,55.209 41.209,57 39,57 C36.791,57 35,55.209 35,53 C35,50.791 36.791,49 39,49 C41.209,49 43,50.791 43,53 "/>
</g>

<g fill="none" stroke="#1e252a" stroke-opacity="1" stroke-width="2" stroke-linecap="butt" stroke-linejoin="miter" stroke-miterlimit="4" transform="matrix(5.3961,0,0,5.3961,110.211,56)"
>
<path vector-effect="none" fill-rule="nonzero" d="M43,53 C43,55.209 41.209,57 39,57 C36.791,57 35,55.209 35,53 C35,50.791 36.791,49 39,49 C41.209,49 43,50.791 43,53 "/>
</g>

<g fill="#000000" fill-opacity="1" stroke="#000000" stroke-opacity="1" stroke-width="1" stroke-linecap="square" stroke-linejoin="miter" stroke-miterlimit="2" transform="matrix(1,0,0,1,8,8)"
>
</g>

<g fill="#1e252a" fill-opacity="1" stroke="none" transform="matrix(2.25031,0,0,2.25031,255.91,470.605)"
>
<path vector-effect="none" fill-rule="nonzero" d="M-50.444,-30.91 L-50.444,-7.1 L-37.394,-7.1 C-36.334,-7.1 -35.564,-6.98 -35.084,-6.74 C-34.604,-6.5 -34.284,-6.12667 -34.124,-5.62 C-33.964,-5.10667 -33.884,-4.42667 -33.884,-3.58 C-33.884,-2.72667 -33.964,-2.04667 -34.124,-1.54 C-34.284,-1.02667 -34.5573,-0.673333 -34.944,-0.48 C-35.5507,-0.16 -36.384,0 -37.444,0 L-54.724,0 C-56.964,0 -58.274,-0.606667 -58.654,-1.82 C-58.8473,-2.33333 -58.944,-3.15 -58.944,-4.27 L-58.944,-30.96 C-58.944,-31.6933 -58.9207,-32.2467 -58.874,-32.62 C-58.8273,-32.9867 -58.674,-33.41 -58.414,-33.89 C-57.9673,-34.75 -56.7207,-35.18 -54.674,-35.18 C-52.434,-35.18 -51.104,-34.59 -50.684,-33.41 C-50.524,-32.8633 -50.444,-32.03 -50.444,-30.91 M-8.308,-15.67 C-8.308,-13.7033 -8.79467,-12.2467 -9.768,-11.3 C-10.7413,-10.36 -11.8213,-9.89 -13.008,-9.89 L-24.388,-9.89 C-24.388,-8.99 -23.858,-8.23667 -22.798,-7.63 C-21.7447,-7.02333 -20.688,-6.72 -19.628,-6.72 C-17.7747,-6.72 -16.3213,-6.91333 -15.268,-7.3 L-14.738,-7.49 C-13.9713,-7.84333 -13.3313,-8.02 -12.818,-8.02 C-11.7913,-8.02 -10.9113,-7.3 -10.178,-5.86 C-9.758,-4.99333 -9.548,-4.25667 -9.548,-3.65 C-9.548,-0.803333 -12.958,0.62 -19.778,0.62 C-22.1447,0.62 -24.248,0.213333 -26.088,-0.6 C-27.928,-1.41333 -29.3613,-2.49333 -30.388,-3.84 C-32.4013,-6.43333 -33.408,-9.33 -33.408,-12.53 C-33.408,-16.5633 -32.1047,-19.7867 -29.498,-22.2 C-26.8913,-24.6133 -23.6347,-25.82 -19.728,-25.82 C-15.2813,-25.82 -12.018,-24.2533 -9.938,-21.12 C-8.85133,-19.4533 -8.308,-17.6367 -8.308,-15.67 M-24.478,-14.26 L-18.428,-14.26 C-17.2147,-14.26 -16.608,-14.77 -16.608,-15.79 C-16.608,-16.53 -16.888,-17.1233 -17.448,-17.57 C-18.008,-18.0167 -18.808,-18.24 -19.848,-18.24 C-20.888,-18.24 -21.9213,-17.8167 -22.948,-16.97 C-23.968,-16.1233 -24.478,-15.22 -24.478,-14.26 M-5.184,-4.22 L-5.184,-21.07 C-5.184,-21.81 -5.16067,-22.3633 -5.114,-22.73 C-5.06733,-23.0967 -4.93067,-23.52 -4.704,-24 C-4.25733,-24.8333 -3.01067,-25.25 -0.964,-25.25 C0.576,-25.25 1.666,-24.9767 2.306,-24.43 C2.846,-23.9833 3.13267,-23.2967 3.166,-22.37 C3.19933,-22.05 3.216,-21.5867 3.216,-20.98 L3.216,-4.18 C3.216,-3.44 3.19267,-2.88667 3.146,-2.52 C3.09933,-2.15333 2.946,-1.73 2.686,-1.25 C2.27267,-0.416667 1.04267,0 -1.004,0 C-3.024,0 -4.25733,-0.433333 -4.704,-1.3 C-4.93067,-1.78 -5.06733,-2.19333 -5.114,-2.54 C-5.16067,-2.89333 -5.184,-3.45333 -5.184,-4.22 M2.716,-29.98 C2.476,-29.5133 2.04933,-29.1833 1.436,-28.99 C0.829333,-28.7967 0.0226666,-28.7 -0.984,-28.7 C-1.99067,-28.7 -2.79733,-28.7967 -3.404,-28.99 C-4.01733,-29.1833 -4.444,-29.52 -4.684,-30 C-4.924,-30.48 -5.06733,-30.9033 -5.114,-31.27 C-5.16067,-31.6367 -5.184,-32.19 -5.184,-32.93 C-5.184,-33.6633 -5.16067,-34.2133 -5.114,-34.58 C-5.06733,-34.9533 -4.93067,-35.3633 -4.704,-35.81 C-4.25733,-36.67 -3.01067,-37.1 -0.964,-37.1 C1.056,-37.1 2.27267,-36.67 2.686,-35.81 C2.946,-35.33 3.09933,-34.9067 3.146,-34.54 C3.19267,-34.1667 3.216,-33.6133 3.216,-32.88 C3.216,-32.1467 3.19267,-31.5933 3.146,-31.22 C3.09933,-30.8533 2.956,-30.44 2.716,-29.98 M21.746,-16.8 L18.626,-16.99 L18.626,-10.37 C18.626,-9.50333 18.7627,-8.88 19.036,-8.5 C19.3027,-8.11333 19.8127,-7.92 20.566,-7.92 C21.3193,-7.92 21.896,-7.89667 22.296,-7.85 C22.696,-7.80333 23.1193,-7.65 23.566,-7.39 C24.306,-6.97667 24.676,-5.90667 24.676,-4.18 C24.676,-2.16 24.226,-0.926667 23.326,-0.48 C22.846,-0.253333 22.4227,-0.116667 22.056,-0.07 C21.6893,-0.0233333 21.1527,0 20.446,0 C17.1193,0 14.5927,-0.753333 12.866,-2.26 C11.1393,-3.76 10.276,-6.30333 10.276,-9.89 L10.276,-16.99 C9.66267,-16.8967 9.006,-16.85 8.306,-16.85 C7.59933,-16.85 7.016,-17.12 6.556,-17.66 C6.08933,-18.2067 5.856,-19.1367 5.856,-20.45 C5.856,-21.7633 5.936,-22.7133 6.096,-23.3 C6.256,-23.8933 6.47933,-24.32 6.766,-24.58 C7.27933,-24.9933 7.91933,-25.2 8.686,-25.2 L10.276,-25.01 L10.276,-29.95 C10.276,-30.69 10.2993,-31.2333 10.346,-31.58 C10.3927,-31.9333 10.5427,-32.32 10.796,-32.74 C11.216,-33.54 12.4493,-33.94 14.496,-33.94 C16.6693,-33.94 17.966,-33.3467 18.386,-32.16 C18.546,-31.6467 18.626,-30.83 18.626,-29.71 L18.626,-25.01 C20.0327,-25.1367 21.096,-25.2 21.816,-25.2 C22.536,-25.2 23.0793,-25.1767 23.446,-25.13 C23.8127,-25.0833 24.236,-24.93 24.716,-24.67 C25.5493,-24.2567 25.966,-23.0267 25.966,-20.98 C25.966,-18.96 25.536,-17.7267 24.676,-17.28 C24.196,-17.0533 23.7693,-16.9167 23.396,-16.87 C23.0293,-16.8233 22.4793,-16.8 21.746,-16.8 M28.608,-4.22 L28.608,-21.07 C28.608,-21.81 28.6313,-22.3633 28.678,-22.73 C28.7247,-23.0967 28.8613,-23.52 29.088,-24 C29.5347,-24.8333 30.7813,-25.25 32.828,-25.25 C34.368,-25.25 35.458,-24.9767 36.098,-24.43 C36.638,-23.9833 36.9247,-23.2967 36.958,-22.37 C36.9913,-22.05 37.008,-21.5867 37.008,-20.98 L37.008,-4.18 C37.008,-3.44 36.9847,-2.88667 36.938,-2.52 C36.8913,-2.15333 36.738,-1.73 36.478,-1.25 C36.0647,-0.416667 34.8347,0 32.788,0 C30.768,0 29.5347,-0.433333 29.088,-1.3 C28.8613,-1.78 28.7247,-2.19333 28.678,-2.54 C28.6313,-2.89333 28.608,-3.45333 28.608,-4.22 M36.508,-29.98 C36.268,-29.5133 35.8413,-29.1833 35.228,-28.99 C34.6213,-28.7967 33.8147,-28.7 32.808,-28.7 C31.8013,-28.7 30.9947,-28.7967 30.388,-28.99 C29.7747,-29.1833 29.348,-29.52 29.108,-30 C28.868,-30.48 28.7247,-30.9033 28.678,-31.27 C28.6313,-31.6367 28.608,-32.19 28.608,-32.93 C28.608,-33.6633 28.6313,-34.2133 28.678,-34.58 C28.7247,-34.9533 28.8613,-35.3633 29.088,-35.81 C29.5347,-36.67 30.7813,-37.1 32.828,-37.1 C34.848,-37.1 36.0647,-36.67 36.478,-35.81 C36.738,-35.33 36.8913,-34.9067 36.938,-34.54 C36.9847,-34.1667 37.008,-33.6133 37.008,-32.88 C37.008,-32.1467 36.9847,-31.5933 36.938,-31.22 C36.8913,-30.8533 36.748,-30.44 36.508,-29.98 M58.028,-25.01 C58.6413,-24.8167 59.148,-24.4867 59.548,-24.02 C59.948,-23.56 60.148,-22.8167 60.148,-21.79 C60.148,-20.77 59.8413,-19.65 59.228,-18.43 C58.6213,-17.2167 57.7413,-16.61 56.588,-16.61 C56.0147,-16.61 55.4647,-16.7367 54.938,-16.99 C54.4113,-17.25 53.7147,-17.38 52.848,-17.38 C51.9813,-17.38 51.1747,-17.0733 50.428,-16.46 C49.6747,-15.8533 49.298,-15.12 49.298,-14.26 L49.298,-4.18 C49.298,-3.44 49.2747,-2.88667 49.228,-2.52 C49.1747,-2.15333 49.0213,-1.73 48.768,-1.25 C48.288,-0.416667 47.0413,0 45.028,0 C43.488,0 42.3813,-0.273333 41.708,-0.82 C41.2013,-1.26667 40.9147,-1.95333 40.848,-2.88 C40.848,-3.2 40.848,-3.66333 40.848,-4.27 L40.848,-21.12 C40.848,-21.8533 40.8713,-22.4067 40.918,-22.78 C40.9647,-23.1467 41.1013,-23.5533 41.328,-24 C41.7747,-24.8667 43.0213,-25.3 45.068,-25.3 C46.988,-25.3 48.188,-24.93 48.668,-24.19 C49.0213,-23.6767 49.198,-23.15 49.198,-22.61 C49.358,-22.83 49.5913,-23.1 49.898,-23.42 C50.198,-23.74 50.8447,-24.1733 51.838,-24.72 C52.8313,-25.2667 53.7047,-25.54 54.458,-25.54 C55.2113,-25.54 55.8413,-25.5 56.348,-25.42 C56.8613,-25.34 57.4213,-25.2033 58.028,-25.01 "/>
</g>

<g fill="#000000" fill-opacity="1" stroke="#000000" stroke-opacity="1" stroke-width="1" stroke-linecap="square" stroke-linejoin="miter" stroke-miterlimit="2" transform="matrix(1,0,0,1,8,8)"
>
</g>

<g fill="#000000" fill-opacity="1" stroke="#000000" stroke-opacity="1" stroke-width="1" stroke-linecap="square" stroke-linejoin="miter" stroke-miterlimit="2" transform="matrix(1,0,0,1,8,8)"
>
</g>

<g fill="#000000" fill-opacity="1" stroke="#000000" stroke-opacity="1" stroke-width="1" stroke-linecap="square" stroke-linejoin="miter" stroke-miterlimit="2" transform="matrix(1,0,0,1,0,0)"
>
</g>

<g fill="#000000" fill-opacity="1" stroke="#000000" stroke-opacity="1" stroke-width="1" stroke-linecap="square" stroke-linejoin="miter" stroke-miterlimit="2" transform="matrix(1,0,0,1,0,0)"
>
</g>

<g fill="#000000" fill-opacity="1" stroke="#000000" stroke-opacity="1" stroke-width="1" stroke-linecap="square" stroke-linejoin="miter" stroke-miterlimit="2" transform="matrix(1,0,0,1,0,0)"
>
</g>

<g fill="#000000" fill-opacity="1" stroke="#000000" stroke-opacity="1" stroke-width="1" stroke-linecap="square" stroke-linejoin="miter" stroke-miterlimit="2" transform="matrix(1,0,0,1,0,0)"
>
</g>

<g fill="#000000" fill-opacity="1" stroke="#000000" stroke-opacity="1" stroke-width="1" stroke-linecap="square" stroke-linejoin="miter" stroke-miterlimit="2" transform="matrix(1,0,0,1,8,8)"
>
</g>

<g fill="#000000" fill-opacity="1" stroke="#000000" stroke-opacity="1" stroke-width="1" stroke-linecap="square" stroke-linejoin="miter" stroke-miterlimit="2" transform="matrix(1,0,0,1,0,0)"
>
</g>

<g fill="#000000" fill-opacity="1" stroke="#000000" stroke-opacity="1" stroke-width="1" stroke-linecap="square" stroke-linejoin="miter" stroke-miterlimit="2" transform="matrix(1,0,0,1,0,0)"
>
</g>

<g fill="#000000" fill-opacity="1" stroke="#000000" stroke-opacity="1" stroke-width="1" stroke-linecap="square" stroke-linejoin="miter" stroke-miterlimit="2" transform="matrix(1,0,0,1,0,0)"
>
</g>

<g fill="#000000" fill-opacity="1" stroke="#000000" stroke-opacity="1" stroke-width="1" stroke-linecap="square" stroke-linejoin="miter" stroke-miterlimit="2" transform="matrix(1,0,0,1,0,0)"
>
</g>

<g fill="#000000" fill-opacity="1" stroke="#000000" stroke-opacity="1" stroke-width="1" stroke-linecap="square" stroke-linejoin="miter" stroke-miterlimit="2" transform="matrix(1,0,0,1,0,0)"
>
</g>

<g fill="#000000" fill-opacity="1" stroke="#000000" stroke-opacity="1" stroke-width="1" stroke-linecap="square" stroke-linejoin="miter" stroke-miterlimit="2" transform="matrix(1,0,0,1,0,0)"
>
</g>
</g>
</svg>
